<svg xmlns="http://www.w3.org/2000/svg" xmlns:xlink="http://www.w3.org/1999/xlink" width="48" zoomAndPan="magnify" viewBox="0 0 36 36.000001" height="48" preserveAspectRatio="xMidYMid meet" version="1.0"><defs><g/></defs><g fill="#000000" fill-opacity="1"><g transform="translate(8.338955, 15.382239)"><g><path d="M 2.03125 -7.15625 C 2.03125 -2.921875 5.28125 0.21875 9.65625 0.21875 C 14.015625 0.21875 17.28125 -2.953125 17.28125 -7.15625 C 17.28125 -11.421875 14.078125 -14.53125 9.65625 -14.53125 C 5.359375 -14.53125 2.03125 -11.28125 2.03125 -7.15625 Z M 4.75 -7.109375 C 4.75 -10.03125 6.84375 -12.25 9.671875 -12.25 C 12.53125 -12.25 14.578125 -10.03125 14.578125 -7.109375 C 14.578125 -4.203125 12.4375 -1.984375 9.671875 -1.984375 C 6.90625 -1.984375 4.75 -4.25 4.75 -7.109375 Z M 7.671875 -7.96875 L 5.609375 -9.34375 L 5.484375 -9.078125 L 7.5625 -7.703125 Z M 7.453125 -7.390625 L 5.359375 -8.75 C 5.34375 -8.671875 5.328125 -8.578125 5.28125 -8.46875 L 7.359375 -7.109375 Z M 18.15625 -1.0625 L 16.0625 -2.4375 C 16 -2.359375 15.96875 -2.28125 15.90625 -2.21875 L 18 -0.828125 Z M 17.328125 -0.140625 L 15.25 -1.53125 L 15.03125 -1.328125 L 17.109375 0.046875 Z M 6.5 -10.609375 L 8.578125 -9.25 L 8.78125 -9.421875 L 6.703125 -10.8125 C 6.640625 -10.75 6.5625 -10.6875 6.5 -10.609375 Z M 16.90625 -3.765625 L 18.96875 -2.375 L 19.09375 -2.640625 L 17 -4 Z M 6.09375 -10.140625 L 8.1875 -8.78125 L 8.34375 -8.984375 L 6.28125 -10.359375 Z M 5.765625 -9.625 L 7.84375 -8.265625 L 7.984375 -8.484375 L 5.90625 -9.875 C 5.84375 -9.796875 5.8125 -9.703125 5.765625 -9.625 Z M 7.265625 -6.78125 L 5.21875 -8.125 L 5.15625 -7.84375 L 7.21875 -6.484375 Z M 16.265625 -2.703125 L 18.359375 -1.328125 C 18.421875 -1.40625 18.46875 -1.484375 18.53125 -1.546875 L 16.4375 -2.921875 C 16.375 -2.859375 16.328125 -2.78125 16.265625 -2.703125 Z M 15.5 -1.75 L 17.578125 -0.390625 L 17.75 -0.59375 L 15.6875 -1.953125 Z M 19.609375 -4.484375 L 17.546875 -5.84375 L 17.484375 -5.546875 L 19.546875 -4.203125 Z M 9.28125 -9.828125 L 7.234375 -11.1875 L 6.984375 -11.03125 L 9.0625 -9.65625 Z M 10.5625 -10.46875 L 8.59375 -11.765625 L 8.234375 -11.65625 L 10.234375 -10.34375 Z M 5.125 -7.125 L 7.125 -5.8125 C 7.15625 -5.90625 7.15625 -6.015625 7.15625 -6.109375 L 5.125 -7.453125 Z M 16.8125 0.25 L 14.765625 -1.09375 L 14.53125 -0.9375 L 16.59375 0.421875 Z M 18.828125 -2.078125 L 16.734375 -3.453125 L 16.609375 -3.203125 L 18.6875 -1.84375 Z M 16.296875 0.625 L 14.21875 -0.734375 C 14.140625 -0.671875 14.0625 -0.609375 13.96875 -0.5625 L 16.03125 0.765625 Z M 19.640625 -5.9375 L 17.65625 -7.25 L 17.65625 -7.15625 C 17.65625 -7.0625 17.625 -6.984375 17.625 -6.921875 L 19.65625 -5.59375 C 19.65625 -5.703125 19.65625 -5.8125 19.640625 -5.9375 Z M 19.484375 -3.84375 L 17.40625 -5.203125 L 17.34375 -4.9375 L 19.40625 -3.578125 Z M 9.875 -10.171875 L 7.84375 -11.515625 C 7.734375 -11.484375 7.640625 -11.4375 7.5625 -11.375 L 9.609375 -10.03125 Z M 17.140625 -4.328125 L 19.21875 -2.96875 C 19.234375 -3.046875 19.28125 -3.125 19.296875 -3.234375 L 17.21875 -4.59375 C 17.203125 -4.484375 17.171875 -4.40625 17.140625 -4.328125 Z M 19.640625 -5.1875 L 17.609375 -6.515625 C 17.609375 -6.421875 17.59375 -6.3125 17.59375 -6.21875 L 19.640625 -4.875 Z M 19.5625 -6.703125 L 17.609375 -8 C 17.609375 -7.875 17.625 -7.765625 17.625 -7.65625 L 19.625 -6.34375 Z M 5.15625 -6.375 L 7.125 -5.078125 L 7.125 -5.40625 L 5.140625 -6.71875 C 5.140625 -6.609375 5.140625 -6.484375 5.15625 -6.375 Z M 15.015625 1.265625 L 13 -0.0625 L 12.703125 0.046875 L 14.6875 1.359375 C 14.8125 1.34375 14.90625 1.296875 15.015625 1.265625 Z M 15.6875 0.953125 L 13.65625 -0.359375 L 13.359375 -0.25 L 15.390625 1.09375 Z M 13.453125 1.671875 L 11.5 0.390625 C 11.375 0.421875 11.234375 0.453125 11.109375 0.46875 L 13.046875 1.734375 Z M 14.28125 1.5 L 12.296875 0.1875 C 12.171875 0.203125 12.0625 0.25 11.9375 0.28125 L 13.9375 1.578125 C 14.0625 1.546875 14.171875 1.53125 14.28125 1.5 Z M 5.359375 -5.5 L 7.234375 -4.265625 L 7.171875 -4.625 L 5.265625 -5.90625 C 5.28125 -5.765625 5.328125 -5.640625 5.359375 -5.5 Z M 11.390625 -10.625 L 9.5 -11.890625 C 9.359375 -11.890625 9.203125 -11.859375 9.0625 -11.84375 L 11.015625 -10.5625 C 11.125 -10.609375 11.28125 -10.609375 11.390625 -10.625 Z M 19.40625 -7.5625 L 17.46875 -8.8125 L 17.546875 -8.453125 L 19.5 -7.171875 C 19.453125 -7.296875 19.421875 -7.421875 19.40625 -7.5625 Z M 19.078125 -8.484375 L 17.25 -9.703125 L 17.375 -9.296875 L 19.234375 -8.0625 C 19.203125 -8.203125 19.140625 -8.34375 19.078125 -8.484375 Z M 12.09375 1.78125 C 12.203125 1.78125 12.34375 1.78125 12.46875 1.765625 L 10.609375 0.53125 L 10.15625 0.5625 L 12 1.78125 Z M 12.109375 -10.6875 C 12.234375 -10.6875 12.328125 -10.6875 12.453125 -10.671875 L 10.828125 -11.734375 C 10.609375 -11.796875 10.375 -11.84375 10.15625 -11.859375 L 11.9375 -10.6875 Z M 11.328125 1.75 L 9.5625 0.59375 C 9.390625 0.59375 9.21875 0.5625 9.046875 0.5625 L 10.75 1.6875 Z M 5.84375 -4.453125 L 7.515625 -3.359375 C 7.453125 -3.5 7.390625 -3.640625 7.359375 -3.78125 L 5.59375 -4.953125 C 5.671875 -4.796875 5.75 -4.609375 5.84375 -4.453125 Z M 18.4375 -9.625 L 16.8125 -10.703125 C 16.90625 -10.5625 16.96875 -10.40625 17.046875 -10.234375 L 18.765625 -9.09375 C 18.671875 -9.28125 18.5625 -9.46875 18.4375 -9.625 Z M 9.8125 1.484375 L 8.3125 0.484375 C 8.0625 0.453125 7.84375 0.40625 7.625 0.34375 L 8.734375 1.09375 C 9.078125 1.234375 9.421875 1.375 9.8125 1.484375 Z M 16.53125 -11.5625 L 16.171875 -11.78125 C 16.296875 -11.625 16.40625 -11.4375 16.515625 -11.25 L 17.921875 -10.34375 C 17.515625 -10.8125 17.046875 -11.21875 16.53125 -11.5625 Z M 7.84375 -2.71875 L 7.796875 -2.765625 L 6.5625 -3.59375 C 6.921875 -3.234375 7.359375 -2.921875 7.84375 -2.71875 Z M 7.84375 -2.71875 "/></g></g></g><g fill="#000000" fill-opacity="1"><g transform="translate(9.027352, 32.622104)"><g><path d="M 11.109375 -11.96875 L 12.375 -11.96875 L 9 -4.21875 L 5.625 -11.96875 L 6.8125 -11.96875 L 6.8125 -14.28125 L 0.953125 -14.28125 L 0.953125 -11.96875 L 2.953125 -11.96875 L 8.1875 0 L 9.765625 0 L 15.015625 -11.96875 L 16.96875 -11.96875 L 16.96875 -14.28125 L 11.109375 -14.28125 Z M 12.234375 -4.78125 L 14.34375 -3.375 L 14.4375 -3.640625 L 12.34375 -5.03125 Z M 11.984375 -4.203125 L 14.09375 -2.828125 L 14.203125 -3.0625 L 12.09375 -4.46875 Z M 11.234375 -2.5 L 13.34375 -1.125 L 13.453125 -1.359375 L 11.359375 -2.765625 Z M 11.734375 -3.640625 L 13.828125 -2.25 L 13.953125 -2.5 L 11.84375 -3.90625 Z M 12.46875 -5.34375 L 14.578125 -3.9375 L 14.6875 -4.203125 L 12.59375 -5.59375 Z M 10.5 -0.796875 L 12.59375 0.5625 L 12.71875 0.328125 L 10.609375 -1.0625 Z M 10.984375 -1.9375 L 13.109375 -0.546875 L 13.203125 -0.8125 L 11.109375 -2.1875 Z M 11.5 -3.0625 L 13.59375 -1.6875 L 13.71875 -1.953125 L 11.59375 -3.328125 Z M 12.734375 -5.90625 L 14.828125 -4.53125 L 14.953125 -4.78125 L 12.84375 -6.15625 Z M 13.21875 -7.046875 L 15.34375 -5.671875 L 15.4375 -5.90625 L 13.34375 -7.296875 Z M 14.734375 -10.4375 L 16.8125 -9.0625 L 16.9375 -9.328125 L 14.828125 -10.703125 Z M 10.75 -1.359375 L 12.84375 0 L 12.953125 -0.25 L 10.875 -1.625 Z M 14.484375 -9.875 L 16.578125 -8.484375 L 16.671875 -8.75 L 14.578125 -10.140625 Z M 10.265625 -0.21875 L 12.34375 1.140625 L 12.453125 0.890625 L 10.359375 -0.484375 Z M 13.96875 -8.734375 L 16.0625 -7.359375 L 16.1875 -7.625 L 14.09375 -9 Z M 13.734375 -8.171875 L 15.828125 -6.78125 L 15.953125 -7.046875 L 13.859375 -8.4375 Z M 12.984375 -6.484375 L 15.078125 -5.09375 L 15.1875 -5.34375 L 13.109375 -6.71875 Z M 14.234375 -9.296875 L 16.328125 -7.921875 L 16.4375 -8.1875 L 14.34375 -9.5625 Z M 14.96875 -11.015625 L 17.0625 -9.625 L 17.1875 -9.875 L 15.09375 -11.25 Z M 13.484375 -7.625 L 15.578125 -6.234375 L 15.6875 -6.484375 L 13.59375 -7.859375 Z M 7.171875 -11.765625 L 9.1875 -10.4375 L 9.1875 -10.765625 L 7.171875 -12.109375 Z M 7.171875 -12.5 L 9.1875 -11.171875 L 9.1875 -11.5 L 7.171875 -12.84375 Z M 7.171875 -13.21875 L 9.1875 -11.90625 L 9.1875 -12.234375 L 7.171875 -13.5625 Z M 12.171875 1.5625 L 12.203125 1.46875 L 10.109375 0.078125 L 10 0.328125 L 11.859375 1.5625 Z M 17.40625 -10.40625 L 17.515625 -10.40625 L 15.703125 -11.59375 L 15.234375 -11.59375 L 15.21875 -11.578125 L 17.3125 -10.203125 Z M 19.34375 -10.40625 L 19.34375 -10.640625 L 17.328125 -11.984375 L 17.328125 -11.65625 L 19.234375 -10.40625 Z M 17.328125 -12.390625 L 19.34375 -11.078125 L 19.34375 -11.375 L 17.328125 -12.71875 Z M 17.328125 -13.125 L 19.34375 -11.796875 L 19.34375 -12.109375 L 17.328125 -13.453125 Z M 8.9375 0.359375 L 10.765625 1.5625 L 11.25 1.5625 L 9.453125 0.359375 Z M 6.3125 -11.59375 L 8.140625 -10.40625 L 8.640625 -10.40625 L 6.828125 -11.59375 Z M 16.3125 -11.59375 L 18.125 -10.40625 L 18.625 -10.40625 L 16.796875 -11.59375 Z M 9.609375 -6.578125 L 9.453125 -6.953125 L 7.71875 -8.078125 L 7.921875 -7.59375 L 9.5625 -6.515625 Z M 6.578125 -10.6875 L 8.328125 -9.546875 L 8.125 -10.015625 L 6.375 -11.15625 Z M 7.03125 -9.671875 L 8.78125 -8.515625 L 8.578125 -8.984375 L 6.828125 -10.109375 Z M 7.46875 -8.640625 L 9.203125 -7.5 L 9.015625 -7.9375 L 7.265625 -9.09375 Z M 19.34375 -12.703125 L 17.328125 -14.03125 L 17.328125 -13.796875 L 19.34375 -12.46875 Z M 8.375 -6.578125 L 9.328125 -5.953125 L 9.453125 -6.21875 L 8.171875 -7.046875 Z M 8.84375 -5.546875 L 9.078125 -5.390625 L 9.203125 -5.640625 L 8.640625 -6.015625 Z M 8.84375 -5.546875 "/></g></g></g></svg>